<?xml version="1.0" encoding="iso-8859-1"?>
<!-- Uploaded to: SVG Repo, www.svgrepo.com, Generator: SVG Repo Mixer Tools -->
<svg version="1.1" id="Layer_1" xmlns="http://www.w3.org/2000/svg" xmlns:xlink="http://www.w3.org/1999/xlink" 
	 viewBox="0 0 512 512" xml:space="preserve">
<rect x="-89.342" y="251.293" transform="matrix(-0.1684 -0.9857 0.9857 -0.1684 -80.0888 460.7472)" style="fill:#AA6100;" width="487.302" height="25.728"/>
<g>
	<polygon style="fill:#9A4C00;" points="115.75,24.85 192.808,489.567 198.047,488.671 204.611,484.462 126.965,30.003 	"/>
	<path style="fill:#9A4C00;" d="M125.95,21.818l-25.361,4.333l7.095,41.523c11.249,6.014,20.725,11.654,29.021,17.088L125.95,21.818
		z"/>
</g>
<polygon style="fill:#AA6100;" points="313.395,384.365 313.395,501.991 191.689,501.991 "/>
<polygon style="fill:#9A4C00;" points="313.395,433.797 313.395,384.365 191.689,501.991 277.349,501.991 "/>
<polygon style="fill:#CC7400;" points="256.005,498.326 181.233,491.982 391.446,187.544 412.358,202.533 "/>
<g>
	<path style="fill:#9A4C00;" d="M391.446,187.544l-26.891,38.944c8.377,2.623,16.726,4.938,25.192,6.977l0.176,0.041
		c0.589,0.136,2.638,0.582,5.564,0.941l16.87-31.915L391.446,187.544z"/>
	<path style="fill:#9A4C00;" d="M286.177,394.455c-1.348,0-2.715-0.353-3.956-1.096c-3.658-2.19-4.848-6.929-2.659-10.587
		l33.175-55.429c2.189-3.658,6.929-4.848,10.587-2.659c3.658,2.189,4.848,6.929,2.659,10.587L292.808,390.7
		C291.362,393.115,288.803,394.455,286.177,394.455z"/>
	<path style="fill:#9A4C00;" d="M238.046,474.873c-1.349,0-2.715-0.353-3.956-1.096c-3.658-2.19-4.848-6.929-2.659-10.587
		l23.915-39.958c2.189-3.658,6.928-4.848,10.587-2.659c3.658,2.19,4.848,6.929,2.659,10.587l-23.915,39.958
		C243.231,473.534,240.671,474.873,238.046,474.873z"/>
	<path style="fill:#9A4C00;" d="M407.252,180.841c-22.952-5.277-48.728-13.455-85.991-31.728
		c-53.142-26.058-75.073-45.883-98.292-66.874c-24.058-21.747-48.935-44.236-106.729-72.575c-8.964-4.394-20.001-1.096-24.655,7.369
		c-4.654,8.465-1.161,18.889,7.803,23.284c53.143,26.058,75.073,45.883,98.292,66.874c24.057,21.748,48.934,44.236,106.728,72.576
		c38.421,18.841,66.229,27.926,90.158,33.687c0,0,27.92,6.464,27.92-15.295C422.484,184.42,407.975,180.969,407.252,180.841z"/>
</g>
<path style="fill:#663A00;" d="M403.828,195.959c-23.93-5.761-51.736-14.846-90.158-33.687
	c-57.794-28.34-82.67-50.828-106.728-72.576c-23.219-20.989-45.15-40.815-98.292-66.874c-5.463-2.678-8.877-7.599-9.671-12.948
	c-3.056,1.589-5.665,4.016-7.394,7.159c-4.654,8.465-1.161,18.889,7.803,23.284c53.143,26.059,75.073,45.883,98.292,66.874
	c24.057,21.748,48.934,44.236,106.728,72.576c38.421,18.841,66.229,27.926,90.158,33.687c0,0,27.92,6.464,27.92-15.295
	c0-1.004-0.085-1.948-0.229-2.846C414.161,198.341,403.828,195.959,403.828,195.959z"/>
<path d="M408.83,173.284c-19.373-4.462-44.53-11.662-84.172-31.101c-52.17-25.581-73.709-45.054-96.512-65.669
	c-24.452-22.105-49.738-44.962-108.508-73.78C115.989,0.946,111.906,0,107.829,0c-9.677,0-18.493,5.103-23.008,13.315
	c-3.225,5.866-3.9,12.594-1.89,18.94C86.324,42.967,96.26,47.382,96.398,47.45l75.82,443.034l-1.507,2.175
	c-3.748,1.449-6.429,5.088-6.429,9.332c0,5.505,4.505,10.009,10.009,10.009h142.285c5.505,0,10.008-4.505,10.008-10.009
	c0-3.873-2.233-7.242-5.471-8.904v-101.42l34.884-65.995c1.992-3.769,0.552-8.439-3.217-10.431
	c-3.768-1.989-8.438-0.552-10.431,3.217l-91.722,173.525h-60.668l190.032-274.346c4.261,1.185,8.531,2.301,12.833,3.337
	c0.113,0.026,0.447,0.101,0.95,0.198l-25.938,49.07c-1.992,3.769-0.552,8.439,3.217,10.431c1.151,0.607,7.762,1.657,10.431-3.217
	l29.673-56.137c3.342-0.675,6.321-1.797,8.883-3.388c4.636-2.881,10.163-8.648,10.163-19.772
	C430.203,181.163,414.638,174.415,408.83,173.284z M305.676,420.871v71.111h-37.589L305.676,420.871z M184.679,472.495L113.56,56.24
	c4.052,2.168,7.885,4.294,11.531,6.384l67.963,397.782L184.679,472.495z M205.616,442.269L142.57,73.271
	c2.911,1.891,5.684,3.756,8.338,5.601l60.627,354.85L205.616,442.269z M224.099,415.586l-55.224-323.22
	c7.497,6.07,14.19,12.031,20.875,18.064l48.617,284.555L224.099,415.586z M250.931,376.848l-42.703-249.941
	c6.288,5.43,13.021,10.968,20.638,16.68L265.2,356.248L250.931,376.848z M277.763,338.111l-31.098-182.016
	c6.052,3.986,12.635,8.073,19.887,12.282l25.48,149.135L277.763,338.111z M304.594,299.375l-20.746-121.422
	c5.393,2.856,18.701,9.488,19.475,9.863l15.54,90.958L304.594,299.375z M331.426,260.639l-11.081-64.857
	c6.544,2.935,12.916,5.634,19.178,8.129l6.173,36.127L331.426,260.639z M358.258,221.902l-2.003-11.722
	c2.742,0.96,5.475,1.89,8.2,2.776L358.258,221.902z M396.372,205.95L396.372,205.95c-28.581-6.881-55.896-17.093-88.566-33.113
	c-56.823-27.864-81.289-49.981-104.95-71.372c-23.632-21.363-45.954-41.541-100.07-68.077c-2.523-1.237-7.972-5.343-4.437-12.636
	c1.632-3.366,5.984-8.531,14.493-4.157c56.284,28.935,81.289,49.981,104.951,71.371c23.631,21.363,45.951,41.541,100.069,68.078
	c41.156,20.181,67.409,27.662,87.661,32.319l0.245,0.054c1.222,0.294,8.955,2.457,8.999,9.741
	C414.836,209.603,396.376,205.95,396.372,205.95z"/>
</svg>