<?xml version="1.0" encoding="utf-8"?><!-- Uploaded to: SVG Repo, www.svgrepo.com, Generator: SVG Repo Mixer Tools -->
<svg fill="#000000" width="800px" height="800px" viewBox="0 -7.95 105 105" xmlns="http://www.w3.org/2000/svg">
  <path id="trumpet" d="M968.636,972.574c-.99-1.586-2.741-2.41-4.007-3.719-1.5-1.07-2.657-2.491-4.576-3.146-1.389-1.664-3.077-3.025-4.576-4.576-.145-.905-.841-1.255-.857-2.29-1.348.178-1.757,1.3-3.15,1.431,1,.529,1.164,1.888,2,2.573-.177,2.276.5,3.7.285,6.008a22.128,22.128,0,0,1-4,3.719,17.628,17.628,0,0,1-3.717-.287,16.291,16.291,0,0,0-3.147-1.716,56.734,56.734,0,0,1-8.581-11.155,1.872,1.872,0,0,0-.284-1.43,16.6,16.6,0,0,1,1.429-7.437,10.79,10.79,0,0,1,3.433-2.289,7.066,7.066,0,0,1,2.63.271,7.508,7.508,0,0,0,2.232.3c-.041.9.733.984,1.43,1.145.04,1.2,1.2,1.277.859,2.861,2.6-.07,3.374-1.967,5.146-2.861,1.3-1.273,3.392-1.758,4.579-3.146a4.7,4.7,0,0,0,2.288-1.715,4.053,4.053,0,0,0,2-1.717c.716-.619,1.768-.9,2.288-1.716,1.066-.173,1.164-1.315,2.288-1.43-.368-1.255-1.233-2.01-1.715-3.146-2.709.875-5.3-.526-5.433-3.146a10.231,10.231,0,0,1,1.428-2.288,7.548,7.548,0,0,0,2.29-1.431c1.985-.175,5.164-.843,6.29.573.3,2.876-1.482,3.663-2.573,5.147a10.167,10.167,0,0,0,2,2.575c.737-.48-.243-1.641-.569-2a3.667,3.667,0,0,1,.854-2.289c1.366.255,1.663,1.579,2.574,2.289a6.677,6.677,0,0,0,2.574-1.717c-.59-2.459-1.724-4.376-2.287-6.864a6.768,6.768,0,0,0-3.146-1.716c-.108-1.511-1.272-1.967-1.432-3.432.375-.676.482-1.62.863-2.29.891-.345,1.415-1.058,2.859-.858a4.012,4.012,0,0,1,2.857-.572,10,10,0,0,1,2.863,1.145c.549.977,1.335,1.715,1.43,3.146a4.082,4.082,0,0,1-1.43,3.146c.967,1.607,2.065,3.083,3.146,4.579,2.091-.677,2.994-2.537,5.433-2.861-1.032-1.445-2.2-2.754-2.573-4.865-.363-.009-.74,0-1.117,0a7.521,7.521,0,0,1-2.889-.288c-.2-.683-.755-2.655.288-2.862-.507-.54-.211-1.889-.288-2.86.336-.046.24-.521.288-.856a7.009,7.009,0,0,1,8.008-1.717c.684,1.6.359,2.794,0,4.575a14.109,14.109,0,0,1-2,2.29,8.3,8.3,0,0,0,2.289,4.576c.368-.381.375-1.065-.287-1.145.041-.707.051-1.387-.571-1.428.1-1.239-.328-3,.571-3.434,2.105-.2,2.04,1.771,2.291,3.434,1.127-.112,1.315-1.162,2-1.717.346-.894,1.236-1.244,1.427-2.289,4.574-4.1,8.194-9.16,12.016-14.015a13.052,13.052,0,0,1,2-4.865c-.353-1.454-.862-2.757-1.141-4.289V892.2c.387-.09.234-.716.285-1.144.938-1.254,1.931-2.454,2.859-3.719,1.854-.908,4.594-.939,7.436-.858.066.284.417.28.769.275a3.036,3.036,0,0,1,.377.01c2.978,1.6,5.881,3.272,8.009,5.72a48.309,48.309,0,0,1,6.578,6.866c3.885,5.08,7.6,10.325,8.868,18.02v3.718c-.487,3.709-1.7,6.687-4.289,8.3a15.017,15.017,0,0,1-5.149.571c-5.435-1.144-8.634-4.525-11.727-8.009-3.441.279-5.8,1.633-8.3,2.862-.93,1.072-1.977,2.026-2.859,3.145-.9.136-.756-.769-1.43-.858-.075,1.791,1.712,1.722,1.715,3.433,1.678.322,1.839,2.167,3.433,2.574.841,2.019,2.358,3.361,3.147,5.435a7.842,7.842,0,0,1,1.143,3.146c.76.671.468,2.392,1.145,3.146a51.5,51.5,0,0,1-2.859,9.153,19.264,19.264,0,0,0-2.862,3.719c-3.352,2.75-5.962,6.243-9.437,8.868a41.552,41.552,0,0,1-10.87,7.151,6.187,6.187,0,0,1-2.573.284,23.953,23.953,0,0,1-4.006,1.432c-.9.08-1.762.118-2.585.118A26.586,26.586,0,0,1,968.636,972.574Zm12.583-.859a2.444,2.444,0,0,1,1.719-.284,33.205,33.205,0,0,0,10.3-5.149.75.75,0,0,0,.634-.162.783.783,0,0,1,.8-.124,21.929,21.929,0,0,1,4.005-3.147c1.429-.953,2.576-2.191,4-3.147,1.435-2.667,3.76-4.439,5.436-6.862.9.136,1.12-.407,1.718-.572.722-1.949,1.8-3.534,2-6.008V941.11c-1.152-2.185-2.43-4.241-3.429-6.581a7.871,7.871,0,0,1-2.574-2.858c-1.4-.509-1.424-2.392-3.15-2.575a4.852,4.852,0,0,0-2.287,1.43,56.04,56.04,0,0,0,4.576,6.292,8.118,8.118,0,0,0,2,3.434c.229,1.678,1.2,2.614,1.432,4.291a12.055,12.055,0,0,1-.288,3.433,2.169,2.169,0,0,1-2,.572c-.5,2.461-2.916,3-3.436,5.434-1.824.177-2.3,1.7-3.714,2.29a19.654,19.654,0,0,1-3.151,3.145,10.524,10.524,0,0,1-2,.571c-2.345,2.9-6.062,4.428-9.153,6.581-1.973.508-3.651,1.3-5.721,1.714H974.07c-1.124-.136-2.142-1.506-3.145-.857-2.634-2.994-5.322-5.934-7.727-9.153-.3-1.227-1.214-1.837-1.427-3.147-1.247-.008-1.566.912-2.577,1.146.513,3.4,2.585,5.233,4.577,7.15.49-.463.11-1.8,1.144-1.715-.217,1.553.455,2.217.286,3.719,2.025,1.7,4.393,3.043,6.295,4.861a29.912,29.912,0,0,0,5.432,1.146c.419.014.861,0,1.3,0,.275-.005.551-.011.821-.011A5.7,5.7,0,0,1,981.219,971.715Zm-41.188-20.594c-1.015.8-1.233,2.388-1.429,4,.559,2.016,1.3,3.852,1.714,6.008.927.792,1.321,2.11,2.289,2.858.559,1.253,1.964,1.661,2.574,2.861,1.578.331,2.714,1.1,4.576,1.144,1.481-1.3,1.544-5.531.289-7.15a2.005,2.005,0,0,0-1.188.084c-.53.163-.919.327-1.1-.372,0-1.237,1.349-1.127,1.716-2,1.02-.317,1.451-1.218,2.573-1.43,1.155-1.421,3.055-2.1,4.577-3.148,2.974-2.175,6.152-4.147,9.153-6.293,1.016-.221,1.037-.039,2.29-.284,3.763-2.434,7.448-4.949,11.155-7.438,1.56-1.491,3.7-2.407,5.149-4.006,1.836-1.31,3.7-2.589,5.435-4.005,3.981-2.213,7.218-5.177,11.443-7.149,3.56-2.639,7.823-4.573,11.727-6.867a2.409,2.409,0,0,1,1.714-.285c-.9-3.676-3.891-5.263-5.435-8.3a5.419,5.419,0,0,0,.859,3.148c.237.73,1.35,2.058.574,2.859-1.944.111-2.536-2.327-2.863-3.147a3.546,3.546,0,0,1-.284-1.144c-.059-1.047-.777-1.931-.574-3.146-.134-1.021,1.666-1.742.284-2.289a8.1,8.1,0,0,1-2.288,4.005c.038,1.008.82,1.278.861,2.288-.011,1.73,1.531,3.418.571,5.147-.288,0-.341.234-.571.287-1.681.248-1.242-1.62-2.287-2-.023,1.444.356,1.636,0,2.859-.673.089-1.185.561-1.719,0-.027.9.764,1.706-.571,1.717-1.13-.588-1.057-2.378-1.719-3.431-1.57,1.12,1.367,4.041-1.143,4.574-1.037-.1-1.06-1.225-2-1.43-3.055,3.141-5.388,7.008-8.863,9.727-1.868,1.28-3.588,2.705-5.436,4-1.375,1.773-3.562,2.731-5.151,4.291-2.277.868-3.872,2.42-5.718,3.717-2.21.935-3.826,2.472-6.3,3.148-.613.531-.515,1.771-1.428,2-1.6.31-2.133,1.683-3.719,2-.783,1.123-2.4,1.414-3.434,2.288-.03,1.306.286,2.956-.858,3.146-.034-.54-.945-.2-.857-.857-.355.039-.427-.2-.5-.445-.08-.275-.161-.548-.65-.414-.6.255-.844.871-1.714.859-.472.67-.091,2.2-1.144,2.287-1.04-.2-1.32-1.159-2.573-1.144a8.793,8.793,0,0,0-1.66.167,7.5,7.5,0,0,1-2.347.121c-.643-.5-.562-1.725-.856-2.578a8.634,8.634,0,0,0-3.05-.858Zm23.74,2.575c.617,1.574,1.962,2.426,2.863,3.718a23.3,23.3,0,0,1,3.43,3.434,49.993,49.993,0,0,0,8.01,5.72,10.1,10.1,0,0,0,2.86.285,14.972,14.972,0,0,0,4.577-3.433c-2.261-2.03-3.245-5.336-4.863-8.009-1.525-2.863-2.842-5.93-4.291-8.867-.017-.175-.047-.339-.286-.286-.016-.175-.045-.338-.284-.285-.213.836-1.545.554-1.432,1.715.8,2.161,1.977,3.935,2.861,6.008,1.606,1.157,2.5,3.031,3.718,4.577a15.766,15.766,0,0,0,1.43,2.575c.31.872,1.375,2.064.859,2.858-.781.211-.577-.567-1.144-.571.075,1.126-.109,1.987-.86,2.289a23.941,23.941,0,0,1-4.576-6.58c-1.657-2.159-3.461-4.165-5.147-6.292a12.224,12.224,0,0,1-1.145-2.575C967.674,950.734,965.979,952.468,963.771,953.7Zm14.016-8.868c1.435,2,2.23,4.636,3.432,6.864a16.744,16.744,0,0,1,1.719,3.433c.532,1.281,1.594,2.029,1.715,3.719,1.332.574,1.394,2.418,2.576,3.146.752-.868,2.021-1.22,2.573-2.29-1.371-.822-1.843-2.542-2.861-3.719-.616-1.578-1.694-2.692-2.288-4.289-1.724-2.663-4.021-4.75-5.151-8.008h-.857C978.561,944.267,977.874,944.245,977.787,944.828Zm4.577-3.433c.036,2.157,1.5,2.885,2,4.578q1.06,2.232,2.288,4.29a48.317,48.317,0,0,0,5.148,8.009c-.166-1.837-1.4-2.61-1.715-4.291-.744-1.256-1.258-2.747-2-4-.869-3.229-2.377-5.824-3.432-8.867-.059-.322-.317-.445-.574-.573C983.7,941.014,982.809,940.98,982.364,941.395Zm3.719-1.715c2.914,5.285,5.24,11.162,8.009,16.592,1.138.089.775-1.324,1.714-1.432.3-.751,1.135-.962,1.432-1.714-.928-1.074-1.976-2.026-2.858-3.147-2.72-3.576-4.225-8.361-7.15-11.728C987.033,938.913,986.278,939.015,986.083,939.679Zm5.148-3.719a10.77,10.77,0,0,0,.572,2c-.024.452-.731.223-.572.858.752,1.156,1.1,2.713,2,3.72a23.276,23.276,0,0,0,2.288,3.433,25.464,25.464,0,0,0,2.573,3.146,2.672,2.672,0,0,0,1.147,1.715c-.167.766,1.175,1.456,1.431.858-1.016-.987-1.626-2.38-2.578-3.432-.755-1.245-1.257-2.745-2.288-3.718-.386-1.615-1.449-2.555-1.714-4.291-1.129-.873-1.133-2.872-2-4-.329-.016-.386-.3-.73-.3A.76.76,0,0,0,991.231,935.96Zm2-.857a7.211,7.211,0,0,1,2,1.429c1.016,2.225,2.291,4.194,3.146,6.578,1.514,1.824,2.335,4.343,4,6.008a11.135,11.135,0,0,0,2.29-5.435c-.047-.91-.65-1.258-.571-2.29-.672-.091-.642-.884-1.144-1.143.154-1.013-1.013-.7-.859-1.716-1.727-1.707-3.817-3.048-4.864-5.435-.046-.335.05-.811-.284-.857C996.1,933.579,994.224,933.9,993.233,935.1Zm-.856.571c.078.08.433-.137.285-.285a.069.069,0,0,0-.05-.017C992.49,935.372,992.25,935.548,992.377,935.674Zm-32.609-1.43a4.4,4.4,0,0,0,2.288-.572c.548-.5,1.76-.336,1.715-1.429C962,932.469,960.48,932.954,959.768,934.244Zm13.432-6.491c.133.09.213.18.3-.088a.29.29,0,0,0-.573,0h.03A.435.435,0,0,1,973.2,927.753Zm34.337-32.7c.475.383.444,1.273.858,1.717.234.716.784,1.122.856,2a11.637,11.637,0,0,1,2,3.72c1.094.716.743,2.878,2,3.433-.046,1.951,1.477,2.335,1.715,4.005,2.825,4.707,5.7,9.365,9.44,13.158a23.348,23.348,0,0,1,3.146,2,15.159,15.159,0,0,0,4.292.859c2.607-1.2,3.152-4.471,2.86-8.581a41.8,41.8,0,0,0-10.011-18.593,45.509,45.509,0,0,1-6.58-5.433,43.2,43.2,0,0,0-9.438-1.715C1009.089,893.56,1007.36,893.354,1007.537,895.057Zm-38.329,26.887c.086.869,1.1.8,1.143,1.717.551.494.814,1.281,1.431,1.716a5.755,5.755,0,0,0,2.288-1.144V922.8a2.524,2.524,0,0,0-2.576-1.378A5.267,5.267,0,0,0,969.208,921.945Zm-1.145,2.29C967.788,925.421,968.919,924.291,968.063,924.234Zm-.2-.089c.015.049.073.1.2.089-.057-.134-.113-.179-.152-.179S967.853,924.1,967.867,924.145Zm11.065-6.206c.033.824-.157,1.873.286,2.289a5.053,5.053,0,0,0,3.72-3.716,5.556,5.556,0,0,0-.726-.05A4.871,4.871,0,0,0,978.932,917.94Zm24.313-2.859c.081.079.433-.14.289-.285a.072.072,0,0,0-.052-.017C1003.359,914.778,1003.118,914.953,1003.245,915.08Zm0-.572c.081.08.433-.139.289-.285a.072.072,0,0,0-.052-.018C1003.358,914.205,1003.118,914.381,1003.245,914.508Zm-.574-1.145c.37.784.556.453.537.121-.01-.181-.081-.361-.217-.361C1002.909,913.123,1002.8,913.189,1002.671,913.363Zm-56.919,50.629c-.008-.278-.354-.221-.573-.286-1.469-1.983-4.14-4.219-2.859-8.008.405.024.808.048.859-.286.374.1.447.5.856.571a3.7,3.7,0,0,1,.859,2.291,2.652,2.652,0,0,1,1.144,1.714c.851,1.246,3.029,1.167,3.145,3.148-.138.855-.877,1.117-1.72,1.117A6.828,6.828,0,0,1,945.752,963.992Zm80.377-44.049c-2.214-3.318-5.4-5.658-7.153-9.439a25.206,25.206,0,0,1-4-12.3,7.5,7.5,0,0,1,.859-2.289h.571c.695-.027.92.415,1.145.858s.449.886,1.143.859c.388.853,1.292,1.187,2,1.717.142,1.291,1.869,2.194.86,3.718-1.654.22-1.923-.941-2.862-1.43,1.477,6.149,4.818,10.438,8.582,14.3.113-2.128-.813-4.213.285-5.72,2.329.151,2.048,2.911,2.859,4.577v3.718c-.718.8-.956,2.094-2,2.573C1027.528,920.832,1027.083,920.131,1026.13,919.943Z" transform="translate(-934 -886.447)"/>
</svg>